<svg width="74" height="74" viewBox="0 0 74 74" fill="none" xmlns="http://www.w3.org/2000/svg">
<path fill-rule="evenodd" clip-rule="evenodd" d="M46.5121 14.9634C46.8786 13.5925 47.6162 12.3492 48.6439 11.3706C49.6715 10.3919 50.9493 9.7158 52.3365 9.41667C53.7237 9.11754 55.1665 9.20699 56.5061 9.67517C57.8458 10.1434 59.0302 10.9721 59.9291 12.0702C60.828 13.1683 61.4064 14.4931 61.6007 15.8989C61.7951 17.3046 61.5977 18.7366 61.0305 20.0374C60.4632 21.3382 59.548 22.4572 58.3856 23.2713C57.2232 24.0853 55.8588 24.5628 54.4425 24.6513C55.1443 26.6367 55.5019 28.7275 55.5 30.8333V49.3333H58.5834C60.2792 49.3333 61.6667 50.7208 61.6667 52.4167C61.6667 54.1125 60.2792 55.5 58.5834 55.5H46.25V58.5833C46.25 61.0366 45.2755 63.3894 43.5408 65.1241C41.8061 66.8588 39.4533 67.8333 37 67.8333C34.5468 67.8333 32.194 66.8588 30.4593 65.1241C28.7246 63.3894 27.75 61.0366 27.75 58.5833V55.5H15.4167C13.7209 55.5 12.3334 54.1125 12.3334 52.4167C12.3334 50.7208 13.7209 49.3333 15.4167 49.3333H18.5V30.8333C18.4994 26.4609 20.0474 22.2296 22.8695 18.8899C25.6916 15.5502 29.6054 13.318 33.9167 12.5893V9.25C33.9167 8.43225 34.2416 7.64799 34.8198 7.06976C35.398 6.49152 36.1823 6.16667 37 6.16667C37.8178 6.16667 38.602 6.49152 39.1803 7.06976C39.7585 7.64799 40.0834 8.43225 40.0834 9.25V12.5893C42.3554 12.9734 44.5358 13.7786 46.5121 14.9634ZM37 61.6667C37.8178 61.6667 38.602 61.3418 39.1803 60.7636C39.7585 60.1853 40.0834 59.4011 40.0834 58.5833V55.5H33.9167V58.5833C33.9167 59.4011 34.2416 60.1853 34.8198 60.7636C35.398 61.3418 36.1823 61.6667 37 61.6667ZM24.6667 49.3333H49.3334V30.8333C49.3334 27.5623 48.034 24.4253 45.721 22.1124C43.4081 19.7994 40.271 18.5 37 18.5C33.729 18.5 30.592 19.7994 28.2791 22.1124C25.9661 24.4253 24.6667 27.5623 24.6667 30.8333V49.3333Z" fill="#BFBFBF"/>
</svg>
