<svg width="49" height="51" viewBox="0 0 49 51" fill="none" xmlns="http://www.w3.org/2000/svg">
<path fill-rule="evenodd" clip-rule="evenodd" d="M25.7127 49.4232L25.6882 49.4275L25.5433 49.5019L25.5024 49.5104L25.4739 49.5019L25.3289 49.4254C25.3071 49.4197 25.2908 49.4239 25.2799 49.4381L25.2717 49.4594L25.237 50.3689L25.2472 50.4114L25.2677 50.439L25.48 50.5962L25.5106 50.6047L25.5351 50.5962L25.7474 50.439L25.7719 50.405L25.7801 50.3689L25.7454 49.4615C25.74 49.4388 25.7291 49.4261 25.7127 49.4232ZM26.2517 49.1831L26.2232 49.1874L25.8475 49.385L25.8271 49.4062L25.8209 49.4296L25.8577 50.3434L25.8679 50.3689L25.8842 50.3859L26.2946 50.5814C26.3205 50.5884 26.3402 50.5828 26.3538 50.5644L26.362 50.5346L26.2926 49.2299C26.2858 49.2029 26.2722 49.1874 26.2517 49.1831ZM24.7919 49.1874C24.7829 49.1817 24.7722 49.1799 24.7619 49.1822C24.7517 49.1846 24.7427 49.191 24.7368 49.2001L24.7246 49.2299L24.6552 50.5346C24.6565 50.5601 24.6681 50.5771 24.6899 50.5856L24.7205 50.5814L25.1309 50.3837L25.1513 50.3667L25.1574 50.3434L25.1942 49.4296L25.188 49.4041L25.1676 49.3829L24.7919 49.1874Z" fill="#BFBFBF"/>
<path fill-rule="evenodd" clip-rule="evenodd" d="M28.8385 42.4405C28.3853 42.789 27.8932 43.078 27.3522 43.2267C25.8291 43.6517 24.1652 43.0185 22.7115 42.5935C12.9666 39.7396 6.43941 35.2707 4.5672 28.6025C3.0727 23.2772 4.51004 17.9435 7.67054 14.6285C10.5983 11.5578 14.9389 10.3126 19.3917 12.308C22.2909 8.26197 26.6499 7.08047 30.6597 8.21735C34.988 9.44347 38.7937 13.3152 40.0575 18.7042C40.3052 19.7611 40.4298 20.837 40.4311 21.9321C40.9538 22.2112 41.4438 22.5512 41.9011 22.9521C44.2633 25.0325 45.5251 28.5663 44.8207 32.2405C43.9224 36.9282 39.7472 40.2198 33.7753 42.5701C32.7524 42.9738 31.6336 43.4732 30.5168 43.2692C29.8961 43.1545 29.3408 42.823 28.8385 42.4405ZM8.4872 27.4103C7.39491 23.5152 8.49333 19.8007 10.5697 17.6226C12.5624 15.5316 15.5167 14.7538 18.7833 16.7428C19.9246 17.4377 21.3967 17.0255 22.05 15.8333C23.9242 12.41 26.8561 11.5451 29.5858 12.3186C32.4319 13.1261 35.1677 15.7696 36.0905 19.7115C36.2035 20.1846 36.2784 20.6698 36.3151 21.1671C35.5671 21.2667 34.8376 21.4823 34.1509 21.8067C31.9582 19.5818 29.055 19.1441 26.4947 20.1258C23.5915 21.2372 21.2435 24.1102 20.6964 27.8141C20.139 31.6072 21.8601 35.3047 25.0635 38.8598C24.6592 38.7536 24.2407 38.6261 23.8181 38.5028C14.3631 35.734 9.73058 31.841 8.4872 27.4103ZM24.7348 28.458C25.0615 26.2267 26.4477 24.6733 27.9055 24.1123C29.253 23.5981 30.7495 23.868 31.8867 25.5786C32.0563 25.8335 32.2727 26.0509 32.5235 26.2182C32.7742 26.3855 33.0544 26.4994 33.3477 26.5533C33.641 26.6073 33.9417 26.6002 34.2324 26.5324C34.523 26.4647 34.7979 26.3377 35.0411 26.1587C36.6744 24.9538 38.1689 25.2343 39.2633 26.197C40.4515 27.2425 41.2396 29.1975 40.8149 31.4096C40.3556 33.8108 38.0219 36.3566 32.3318 38.5942C31.9705 38.7366 31.6111 38.8896 31.2395 39.0022C30.9272 38.7621 30.6393 38.4922 30.3453 38.2308C25.7352 34.102 24.3775 30.8783 24.7348 28.4558V28.458Z" fill="#BFBFBF"/>
</svg>
