<svg width="44" height="44" viewBox="0 0 44 44" fill="none" xmlns="http://www.w3.org/2000/svg">
<path d="M36.4375 13.0625H5.5C4.95299 13.0625 4.42839 13.2798 4.04159 13.6666C3.6548 14.0534 3.4375 14.578 3.4375 15.125V23.375C3.44397 27.7101 5.08445 31.8834 8.03172 35.0625H5.5C4.95299 35.0625 4.42839 35.2798 4.04159 35.6666C3.6548 36.0534 3.4375 36.578 3.4375 37.125C3.4375 37.672 3.6548 38.1966 4.04159 38.5834C4.42839 38.9702 4.95299 39.1875 5.5 39.1875H35.75C36.297 39.1875 36.8216 38.9702 37.2084 38.5834C37.5952 38.1966 37.8125 37.672 37.8125 37.125C37.8125 36.578 37.5952 36.0534 37.2084 35.6666C36.8216 35.2798 36.297 35.0625 35.75 35.0625H33.2183C34.7001 33.4619 35.8664 31.5959 36.6558 29.5625C38.6234 29.5057 40.4913 28.6839 41.8627 27.2718C43.2341 25.8596 44.0008 23.9684 44 22V20.625C43.9977 18.62 43.2002 16.6978 41.7825 15.28C40.3647 13.8623 38.4425 13.0648 36.4375 13.0625ZM33.6875 23.375C33.6831 25.8002 33.0061 28.1767 31.7316 30.24C30.4572 32.3034 28.6354 33.9728 26.4688 35.0625H14.7812C12.6146 33.9728 10.7928 32.3034 9.51835 30.24C8.24392 28.1767 7.56686 25.8002 7.5625 23.375V17.1875H33.6875V23.375ZM39.875 22C39.8744 22.6864 39.6682 23.3569 39.2832 23.9251C38.8982 24.4933 38.3518 24.9333 37.7145 25.1883C37.7801 24.5861 37.8128 23.9808 37.8125 23.375V17.4762C38.4252 17.7437 38.9467 18.184 39.313 18.7432C39.6794 19.3025 39.8747 19.9564 39.875 20.625V22ZM11.6875 8.25V4.125C11.6875 3.57799 11.9048 3.05339 12.2916 2.66659C12.6784 2.2798 13.203 2.0625 13.75 2.0625C14.297 2.0625 14.8216 2.2798 15.2084 2.66659C15.5952 3.05339 15.8125 3.57799 15.8125 4.125V8.25C15.8125 8.79701 15.5952 9.32161 15.2084 9.70841C14.8216 10.0952 14.297 10.3125 13.75 10.3125C13.203 10.3125 12.6784 10.0952 12.2916 9.70841C11.9048 9.32161 11.6875 8.79701 11.6875 8.25ZM18.5625 8.25V4.125C18.5625 3.57799 18.7798 3.05339 19.1666 2.66659C19.5534 2.2798 20.078 2.0625 20.625 2.0625C21.172 2.0625 21.6966 2.2798 22.0834 2.66659C22.4702 3.05339 22.6875 3.57799 22.6875 4.125V8.25C22.6875 8.79701 22.4702 9.32161 22.0834 9.70841C21.6966 10.0952 21.172 10.3125 20.625 10.3125C20.078 10.3125 19.5534 10.0952 19.1666 9.70841C18.7798 9.32161 18.5625 8.79701 18.5625 8.25ZM25.4375 8.25V4.125C25.4375 3.57799 25.6548 3.05339 26.0416 2.66659C26.4284 2.2798 26.953 2.0625 27.5 2.0625C28.047 2.0625 28.5716 2.2798 28.9584 2.66659C29.3452 3.05339 29.5625 3.57799 29.5625 4.125V8.25C29.5625 8.79701 29.3452 9.32161 28.9584 9.70841C28.5716 10.0952 28.047 10.3125 27.5 10.3125C26.953 10.3125 26.4284 10.0952 26.0416 9.70841C25.6548 9.32161 25.4375 8.79701 25.4375 8.25Z" fill="#BFBFBF"/>
</svg>
