<svg width="51" height="48" viewBox="0 0 51 48" fill="none" xmlns="http://www.w3.org/2000/svg">
<path d="M7.96878 8.25H43.0313C44.088 8.25 45.1014 8.64509 45.8487 9.34835C46.5959 10.0516 47.0157 11.0054 47.0157 12V42C47.0188 42.7141 46.8033 43.414 46.3949 44.0159C45.9865 44.6178 45.4024 45.0961 44.7127 45.3938C44.1833 45.6273 43.606 45.7489 43.0213 45.75C42.0857 45.7479 41.181 45.4344 40.4673 44.865L40.4434 44.8444L34.172 39.75H7.96878C6.91206 39.75 5.89861 39.3549 5.1514 38.6516C4.40418 37.9484 3.9844 36.9946 3.9844 36V12C3.9844 11.0054 4.40418 10.0516 5.1514 9.34835C5.89861 8.64509 6.91206 8.25 7.96878 8.25ZM8.76565 35.25H35.0625C35.6363 35.2491 36.1911 35.4435 36.6244 35.7975L42.2344 40.3556V12.75H8.76565V35.25Z" fill="#BFBFBF"/>
</svg>
