<svg width="44" height="44" viewBox="0 0 44 44" fill="none" xmlns="http://www.w3.org/2000/svg">
<path d="M43.175 39.325L31.625 27.775C31.075 27.225 30.25 26.95 29.425 26.95C31.625 24.2 33 20.35 33 16.5C33 7.425 25.575 0 16.5 0C7.425 0 0 7.425 0 16.5C0 25.575 7.425 33 16.5 33C20.35 33 24.2 31.625 26.95 29.15C26.95 29.975 26.95 30.8 27.775 31.35L39.325 42.9C39.875 43.45 40.7 43.725 41.25 43.725C41.8 43.725 42.625 43.45 43.175 42.9C44.275 42.075 44.275 40.425 43.175 39.325ZM16.5 28.875C9.625 28.875 4.125 23.375 4.125 16.5C4.125 9.625 9.625 4.125 16.5 4.125C23.375 4.125 28.875 9.625 28.875 16.5C28.875 23.375 23.375 28.875 16.5 28.875Z" fill="#BFBFBF"/>
</svg>
